<?xml version="1.0" encoding="utf-8"?>
<!-- Generator: Adobe Illustrator 22.0.0, SVG Export Plug-In . SVG Version: 6.00 Build 0)  -->
<svg version="1.1" id="Layer_1" xmlns="http://www.w3.org/2000/svg" xmlns:xlink="http://www.w3.org/1999/xlink" x="0px" y="0px"
	 viewBox="0 0 960 560" style="enable-background:new 0 0 960 560;" xml:space="preserve">
<style type="text/css">
	.st0{fill:#00AEEF;}
	.st1{fill:#4189C9;}
	.st2{fill:#D7DF23;}
	.st3{fill:#A5B439;}
</style>
<g>
	<g>
		<polygon class="st0" points="569.5,404.2 568.9,405.1 509.1,405.4 464.7,483.1 614.2,482.3 		"/>
		<polygon class="st1" points="615.2,224.9 465.8,224.4 510.3,302.1 570.1,302.4 		"/>
		<path class="st0" d="M688.3,352.8l-73.2-127.9l-45.1,77.4l29.7,51.9l87.3-0.7C687.5,353.3,687.9,353.1,688.3,352.8z"/>
		<path class="st1" d="M687.6,353.9c-0.1,0-0.2-0.1-0.3-0.1l-88.7-0.6l-29.2,51l44.7,78.1L687.6,353.9z"/>
	</g>
	<g>
		<polygon class="st2" points="330.1,462.6 556.3,463.4 488.9,345.7 398.4,345.4 		"/>
		<polygon class="st3" points="399.3,191.2 400.1,189.9 490.6,189.5 558,71.8 331.6,73.1 		"/>
		<path class="st3" d="M219.3,269l110.8,193.6l68.3-117.2l-45-78.6l-132.2,1.1C220.6,268.2,220,268.7,219.3,269z"/>
		<path class="st2" d="M220.4,267.3c0.1,0.1,0.4,0.1,0.5,0.2l134.2,0.9l44.2-77.2L331.6,73.1L220.4,267.3z"/>
	</g>
	<g>
		<path class="st0" d="M642.6,179.5L569.4,51.6L524.3,129L554,181l87.3-0.7C641.8,180,642.2,179.7,642.6,179.5z"/>
		<path class="st1" d="M642.2,175.4c-0.1,0-0.2-0.1-0.3-0.1l-88.7-0.6l-29.2,51l44.7,78.1L642.2,175.4z"/>
	</g>
</g>
<polygon class="st1" points="570.5,50.9 416.4,51.6 461.6,129.2 523.3,128.9 "/>
</svg>
